<svg xmlns="http://www.w3.org/2000/svg" xmlns:xlink="http://www.w3.org/1999/xlink" width="150" zoomAndPan="magnify" viewBox="0 0 112.5 135.000003" height="180" preserveAspectRatio="xMidYMid meet" version="1.0"><defs><clipPath id="id1"><path d="M 2.734375 0 L 110 0 L 110 134 L 2.734375 134 Z M 2.734375 0 " clip-rule="nonzero"/></clipPath></defs><g clip-path="url(#id1)"><path fill="#ffffff" d="M 107.335938 97.003906 C 107.3125 96.988281 107.304688 96.972656 107.304688 96.972656 L 107.652344 97.402344 C 107.496094 97.261719 107.328125 97.121094 107.148438 96.980469 C 107.453125 97.238281 107.445312 98.589844 107.480469 98.933594 C 107.605469 100.535156 107.40625 102.167969 106.898438 103.699219 C 105.265625 108.65625 100.644531 111.773438 95.988281 113.625 C 93.847656 114.476562 91.625 115.09375 89.363281 115.515625 C 85.835938 116.179688 82.214844 116.382812 78.632812 116.25 C 76.515625 116.15625 74.402344 115.929688 72.3125 115.578125 C 69.9375 115.179688 67.582031 114.632812 65.265625 113.945312 C 59.464844 112.21875 53.949219 109.726562 48.851562 106.757812 C 48.257812 106.414062 47.667969 106.0625 47.089844 105.703125 C 48.632812 104.953125 50.132812 104.160156 51.605469 103.347656 C 56.40625 100.667969 60.496094 97.339844 64.75 93.886719 C 66.027344 92.847656 67.339844 91.824219 68.699219 90.871094 C 71.109375 89.1875 73.667969 87.734375 76.460938 86.84375 C 77.164062 86.617188 77.890625 86.429688 78.625 86.28125 C 82.253906 85.5625 86.226562 86.046875 89.253906 88.164062 C 92.289062 90.28125 94.152344 94.175781 93.335938 97.777344 C 92.703125 100.574219 90.546875 102.894531 87.917969 104.066406 C 84.859375 105.421875 81.019531 105.203125 78.421875 103.097656 C 77.140625 102.050781 76.164062 100.378906 76.578125 98.777344 C 76.90625 97.519531 78.054688 96.589844 79.289062 96.191406 C 80.574219 95.777344 82.144531 95.910156 83.054688 96.910156 C 83.960938 97.910156 83.703125 99.847656 82.410156 100.253906 C 83.851562 101.355469 86.195312 100.582031 86.996094 98.957031 C 87.792969 97.332031 87.207031 95.253906 85.90625 93.988281 C 84.609375 92.722656 82.738281 92.183594 80.925781 92.136719 C 78.75 92.082031 76.515625 92.699219 74.847656 94.089844 C 73.175781 95.480469 72.140625 97.683594 72.394531 99.847656 C 72.675781 102.222656 74.417969 104.214844 76.460938 105.460938 C 81.246094 108.390625 87.652344 107.796875 92.492188 104.953125 C 92.757812 104.796875 93.007812 104.636719 93.257812 104.464844 C 99.882812 99.871094 99.179688 90.242188 92.335938 86 C 89.324219 84.132812 85.703125 83.351562 82.167969 83.53125 C 81.699219 83.554688 81.230469 83.601562 80.769531 83.65625 C 80.332031 83.710938 79.894531 83.78125 79.464844 83.859375 C 83.679688 80.46875 87.128906 76.324219 89.738281 71.464844 C 93.636719 64.222656 95.613281 55.65625 95.613281 46.003906 C 95.613281 31.054688 91.585938 19.527344 83.640625 11.738281 C 75.691406 3.953125 63.5 0 47.417969 0 C 45.316406 0 41.1875 0.0859375 34.804688 0.273438 L 22.984375 0.40625 C 17.753906 0.40625 13.507812 0.289062 10.339844 0.0703125 L 10.339844 1.085938 C 13.382812 1.289062 15.585938 1.640625 17.074219 2.164062 C 18.839844 2.789062 20.0625 4.007812 20.703125 5.78125 C 21.296875 7.417969 21.585938 9.949219 21.585938 13.511719 L 21.585938 80.640625 C 21.585938 83.289062 21.421875 85.367188 21.101562 86.929688 C 20.890625 86.859375 20.671875 86.796875 20.460938 86.734375 C 19.820312 86.539062 19.160156 86.359375 18.496094 86.226562 C 16.691406 85.851562 14.78125 85.710938 12.859375 85.890625 C 11.894531 85.992188 10.941406 86.171875 10.019531 86.4375 C 9.105469 86.726562 8.210938 87.09375 7.4375 87.585938 C 5.875 88.546875 4.761719 89.859375 4.058594 91.214844 C 3.355469 92.582031 2.988281 94.019531 2.894531 95.433594 C 2.792969 96.847656 2.949219 98.253906 3.308594 99.621094 C 3.667969 100.996094 4.230469 102.347656 5.066406 103.613281 C 5.898438 104.875 7.023438 106.023438 8.351562 107.03125 C 8.4375 107.09375 8.53125 107.15625 8.625 107.21875 C 9.886719 108.117188 11.253906 108.921875 12.75 109.554688 C 15.929688 110.9375 19.503906 111.695312 23.078125 111.828125 C 23.972656 111.859375 24.871094 111.851562 25.761719 111.820312 C 26.65625 111.78125 27.546875 111.695312 28.40625 111.585938 C 29.570312 111.460938 30.714844 111.257812 31.839844 111.023438 C 33.386719 112.695312 35.007812 114.335938 36.71875 115.929688 C 40.035156 118.988281 43.679688 121.902344 47.789062 124.488281 C 48.835938 125.113281 49.875 125.753906 50.945312 126.355469 C 52.058594 126.925781 53.152344 127.511719 54.277344 128.074219 C 55.4375 128.597656 56.601562 129.105469 57.78125 129.605469 C 58.1875 129.753906 58.597656 129.902344 59.003906 130.058594 C 59.808594 130.355469 60.621094 130.652344 61.433594 130.941406 C 71.882812 134.546875 83.757812 134.601562 94.144531 130.996094 C 97.726562 129.753906 101.222656 127.863281 103.207031 124.699219 C 103.394531 124.394531 103.574219 124.082031 103.738281 123.746094 C 104.570312 122.058594 104.976562 120.050781 104.726562 117.664062 C 104.773438 118.09375 104.1875 118.871094 103.976562 119.222656 C 103.191406 120.558594 102.144531 121.753906 100.957031 122.785156 C 96.96875 126.246094 91.664062 127.480469 86.386719 128.121094 C 79.667969 128.933594 72.917969 128.332031 66.449219 126.652344 C 61.589844 125.394531 56.890625 123.535156 52.480469 121.207031 C 52.175781 121.042969 51.871094 120.886719 51.574219 120.722656 C 46.019531 117.703125 41.023438 113.984375 36.601562 109.859375 C 38.269531 109.367188 39.894531 108.8125 41.484375 108.195312 C 42.71875 109.0625 43.984375 109.890625 45.285156 110.695312 C 50.140625 113.679688 55.328125 116.132812 60.746094 117.921875 C 66.425781 119.785156 72.363281 120.863281 78.328125 121.113281 C 78.4375 121.121094 78.546875 121.128906 78.664062 121.128906 C 86.582031 121.417969 95.988281 120.339844 102.785156 115.796875 C 103.503906 115.3125 104.195312 114.789062 104.84375 114.210938 C 109.207031 110.3125 111.859375 103.699219 108.394531 98.371094 C 108.066406 97.863281 107.730469 97.410156 107.335938 97.003906 Z M 32.839844 13.222656 C 32.839844 9.847656 33.128906 7.371094 33.71875 5.640625 C 34.351562 3.796875 35.507812 2.484375 37.15625 1.757812 C 38.714844 1.070312 40.9375 0.742188 43.953125 0.742188 C 53.597656 0.742188 61.378906 2.421875 67.082031 5.726562 C 72.832031 9.058594 77.039062 14.144531 79.597656 20.839844 C 82.121094 27.445312 83.398438 36.082031 83.398438 46.519531 C 83.398438 56.9375 82.238281 65.636719 79.949219 72.371094 C 77.625 79.203125 73.511719 84.484375 67.714844 88.046875 C 61.960938 91.582031 54.003906 93.378906 44.078125 93.378906 C 40.96875 93.378906 38.699219 93.042969 37.140625 92.363281 C 35.492188 91.636719 34.335938 90.335938 33.703125 88.484375 C 33.105469 86.757812 32.824219 84.273438 32.824219 80.898438 L 32.824219 13.222656 Z M 33.011719 106.28125 C 32.472656 105.703125 31.925781 105.125 31.402344 104.542969 C 30.015625 102.988281 28.742188 101.339844 27.242188 99.683594 C 25.746094 98.042969 23.949219 96.402344 21.648438 95.136719 C 21.203125 94.886719 20.734375 94.667969 20.257812 94.449219 C 19.710938 94.207031 19.136719 93.988281 18.550781 93.808594 C 18.339844 93.738281 18.128906 93.675781 17.910156 93.613281 C 17.214844 93.417969 16.449219 93.269531 15.726562 93.230469 C 15 93.175781 14.289062 93.191406 13.59375 93.253906 C 12.449219 93.378906 11.355469 93.644531 10.394531 94.082031 C 10.191406 94.175781 9.980469 94.269531 9.792969 94.378906 C 9.753906 94.402344 9.714844 94.425781 9.675781 94.449219 C 8.640625 95.050781 7.90625 95.933594 7.75 96.847656 C 8.445312 96.058594 9.402344 95.527344 10.472656 95.269531 C 11.527344 94.988281 12.671875 94.933594 13.757812 95.019531 C 14.851562 95.089844 15.882812 95.347656 16.753906 95.722656 C 17.738281 96.128906 18.613281 96.660156 19.441406 97.230469 C 21.09375 98.386719 22.460938 99.832031 23.769531 101.378906 C 25.082031 102.917969 26.316406 104.605469 27.703125 106.273438 C 27.9375 106.554688 28.179688 106.835938 28.414062 107.117188 C 28.132812 107.15625 27.851562 107.203125 27.570312 107.234375 C 26.8125 107.335938 26.082031 107.414062 25.339844 107.460938 C 24.605469 107.523438 23.863281 107.5625 23.117188 107.570312 C 20.164062 107.632812 17.167969 107.40625 14.367188 106.609375 C 12.976562 106.210938 11.644531 105.664062 10.441406 104.960938 C 9.253906 104.277344 8.203125 103.410156 7.273438 102.449219 C 7.054688 102.222656 6.851562 101.988281 6.65625 101.753906 C 6.007812 100.972656 5.449219 100.121094 5.082031 99.214844 C 4.667969 98.191406 4.496094 97.097656 4.597656 96.027344 C 4.613281 95.863281 4.613281 95.707031 4.644531 95.542969 C 4.855469 94.324219 5.472656 93.175781 6.375 92.246094 C 7.257812 91.300781 8.382812 90.585938 9.527344 90.0625 C 10.105469 89.804688 10.707031 89.609375 11.316406 89.4375 C 11.941406 89.289062 12.59375 89.1875 13.265625 89.148438 C 14.601562 89.085938 15.992188 89.234375 17.339844 89.570312 C 17.871094 89.703125 18.386719 89.867188 18.894531 90.054688 C 19.121094 90.132812 19.339844 90.21875 19.566406 90.3125 C 20.117188 90.539062 20.640625 90.789062 21.148438 91.058594 C 22.351562 91.714844 23.480469 92.503906 24.558594 93.371094 C 24.699219 93.488281 24.839844 93.613281 24.972656 93.730469 C 25.230469 93.949219 25.488281 94.167969 25.746094 94.394531 C 27.445312 95.902344 29.054688 97.566406 30.808594 99.246094 C 32.902344 101.253906 35.085938 103.214844 37.410156 105.09375 C 35.960938 105.554688 34.492188 105.929688 33.011719 106.28125 Z M 43.21875 103.128906 C 42.65625 102.738281 42.101562 102.339844 41.546875 101.933594 C 39.207031 100.207031 36.960938 98.355469 34.789062 96.449219 C 34.070312 95.816406 33.347656 95.167969 32.613281 94.511719 C 32.355469 94.285156 32.097656 94.050781 31.839844 93.824219 C 33.636719 93.871094 35.726562 93.933594 38.152344 94.019531 L 46.191406 94.152344 C 52.597656 94.152344 58.503906 93.371094 63.828125 91.832031 C 63.289062 92.214844 62.75 92.589844 62.210938 92.957031 C 58.132812 95.785156 54.050781 98.425781 49.4375 100.519531 C 47.378906 101.449219 45.316406 102.332031 43.21875 103.128906 Z M 43.21875 103.128906 " fill-opacity="1" fill-rule="nonzero"/></g></svg>