<svg xmlns="http://www.w3.org/2000/svg" xmlns:xlink="http://www.w3.org/1999/xlink" width="140" zoomAndPan="magnify" viewBox="0 0 104.88 135.000003" height="180" preserveAspectRatio="xMidYMid meet" version="1.0"><defs><clipPath id="id1"><path d="M 0.933594 0.0507812 L 103.671875 0.0507812 L 103.671875 133.945312 L 0.933594 133.945312 Z M 0.933594 0.0507812 " clip-rule="nonzero"/></clipPath></defs><g clip-path="url(#id1)"><path fill="#020202" d="M 86.542969 95.65625 C 86.9375 95.558594 94.414062 92.710938 94.414062 92.710938 C 94.414062 92.417969 93.53125 90.847656 93.136719 90.550781 C 91.269531 90.648438 88.90625 91.042969 88.613281 91.140625 C 88.515625 91.242188 86.839844 93.105469 85.070312 94.972656 C 85.5625 95.558594 86.050781 95.757812 86.542969 95.65625 Z M 80.640625 5.527344 C 79.457031 5.332031 78.378906 5.234375 77.199219 5.132812 C 78.96875 5.628906 80.640625 6.214844 82.019531 7.195312 C 83.097656 7.785156 84.085938 8.472656 85.070312 9.160156 C 86.152344 9.457031 87.132812 9.75 88.121094 10.042969 C 86.25 7.6875 84.183594 6.117188 80.640625 5.527344 Z M 20.515625 110.582031 C 28.6875 121.578125 38.71875 128.546875 48.460938 132.769531 C 32.328125 132.769531 20.710938 130.707031 10.480469 115.878906 L 0.933594 126.484375 L 6.148438 110.484375 C 10.578125 97.03125 14.808594 102.726562 20.515625 110.582031 Z M 75.917969 53.929688 C 74.539062 53.734375 68.832031 55.207031 68.832031 55.207031 L 69.03125 54.421875 C 69.03125 54.421875 71.488281 52.359375 74.539062 51.476562 C 77.589844 50.59375 79.359375 50.496094 79.359375 50.496094 C 82.902344 51.769531 88.023438 53.539062 89.890625 52.75 C 89.890625 52.75 88.90625 54.421875 88.21875 55.402344 C 88.21875 56.386719 88.21875 58.644531 88.121094 59.132812 C 88.023438 59.722656 83.492188 61.097656 82.214844 61.390625 C 81.820312 62.570312 81.230469 63.355469 80.542969 63.550781 C 80.542969 63.550781 80.25 63.648438 79.65625 63.648438 C 79.164062 63.550781 75.425781 61.980469 75.425781 61.980469 C 75.425781 61.980469 76.113281 62.078125 76.902344 62.277344 C 77.296875 62.375 77.984375 62.375 78.769531 62.472656 C 78.378906 61.785156 78.179688 60.902344 78.179688 59.820312 C 78.179688 59.429688 78.179688 59.035156 78.28125 58.644531 C 77.984375 58.644531 77.589844 58.742188 77.296875 58.742188 C 75.425781 59.132812 70.40625 60.609375 70.40625 60.609375 C 70.40625 60.609375 72.574219 58.742188 75.328125 57.757812 C 77.492188 57.074219 80.347656 57.074219 81.625 57.074219 C 81.820312 56.679688 82.019531 56.089844 82.117188 55.699219 C 80.152344 55.109375 76.902344 54.027344 75.917969 53.929688 Z M 41.96875 72.878906 C 41.96875 72.878906 41.96875 72.878906 41.28125 72.289062 C 40.589844 71.699219 39.410156 72.191406 37.933594 72.09375 C 34.785156 71.796875 31.4375 67.378906 35.96875 64.535156 C 36.851562 63.945312 37.835938 63.550781 38.71875 63.355469 C 38.71875 62.667969 38.71875 62.078125 38.71875 61.488281 C 38.03125 61.6875 36.753906 62.078125 36.0625 62.375 C 35.179688 62.867188 34.292969 62.277344 34.785156 61.097656 C 35.078125 60.410156 35.378906 59.332031 35.472656 58.742188 C 33.996094 58.839844 32.71875 59.429688 31.933594 60.3125 C 31.4375 61 30.945312 61.882812 30.847656 62.964844 C 30.554688 64.925781 31.34375 67.96875 31.832031 69.445312 C 32.128906 70.132812 32.421875 70.621094 32.914062 70.914062 C 32.027344 71.40625 29.765625 67.578125 29.472656 63.945312 C 29.472656 63.945312 29.375 63.847656 29.375 63.75 C 29.375 63.75 29.375 63.75 29.375 63.648438 C 29.375 61.6875 29.867188 59.722656 31.539062 58.644531 C 42.558594 50.984375 39.804688 67.480469 39.902344 67.480469 C 40.886719 67.578125 41.671875 66.203125 41.671875 66.203125 C 41.671875 66.203125 40.789062 69.835938 41.871094 71.503906 C 42.855469 73.273438 41.96875 72.878906 41.96875 72.878906 Z M 48.070312 90.550781 C 50.726562 84.269531 49.054688 67.378906 49.054688 67.378906 C 49.054688 67.378906 51.710938 75.039062 61.449219 80.441406 C 71.09375 85.839844 72.375 85.839844 72.375 85.839844 L 72.375 94.578125 L 75.128906 86.820312 L 75.71875 98.800781 C 76.507812 97.226562 83 86.328125 84.871094 85.542969 C 86.152344 84.957031 91.171875 83.777344 94.21875 83.089844 C 93.925781 82.402344 93.234375 80.832031 90.773438 82.011719 C 90.773438 82.011719 89.105469 82.5 88.316406 82.207031 C 87.53125 81.8125 85.460938 77.691406 86.25 76.613281 C 86.542969 76.21875 87.335938 75.136719 88.121094 74.546875 C 89.398438 73.566406 91.269531 72.976562 91.269531 72.976562 C 91.269531 72.976562 90.976562 73.175781 90.675781 73.46875 C 90.382812 73.664062 88.21875 76.511719 88.21875 76.90625 C 88.121094 77.394531 88.90625 78.964844 89.59375 79.0625 C 90.285156 79.0625 92.644531 76.707031 95.796875 77.394531 C 96.976562 77.691406 96.777344 77.101562 96.777344 77.296875 C 97.46875 77.101562 98.15625 76.808594 98.75 76.414062 C 99.339844 75.824219 99.238281 76.121094 99.535156 75.628906 C 99.632812 75.332031 97.664062 71.996094 96.1875 69.738281 C 95.695312 68.953125 95.304688 68.363281 95.007812 67.96875 C 94.414062 66.890625 93.234375 64.242188 92.054688 61.882812 C 91.367188 60.3125 90.976562 58.9375 90.875 58.054688 C 90.578125 56.285156 92.546875 54.914062 93.925781 53.832031 C 94.414062 53.539062 94.8125 53.144531 94.8125 53.144531 C 94.910156 52.949219 94.316406 51.476562 93.628906 49.710938 C 92.746094 47.546875 91.5625 45.09375 90.875 44.113281 C 89.496094 42.148438 89.300781 41.363281 88.710938 38.222656 C 86.542969 27.324219 66.375 25.65625 58.304688 25.457031 C 43.933594 25.164062 29.867188 27.226562 24.941406 28.011719 C 28.582031 27.816406 33.996094 27.519531 40.691406 27.421875 C 53.972656 27.226562 67.550781 31.351562 67.550781 31.351562 C 67.550781 31.351562 62.242188 33.214844 60.761719 34.785156 C 59.386719 36.453125 63.125 47.449219 63.125 47.449219 C 63.125 47.449219 54.269531 49.21875 43.933594 54.027344 C 46.199219 56.386719 46.105469 61.980469 44.429688 64.730469 C 43.148438 59.429688 40.292969 51.277344 32.617188 54.421875 C 23.761719 57.367188 26.519531 70.816406 33.605469 73.863281 C 36.949219 75.332031 34.984375 81.027344 41.773438 79.0625 L 43.25 78.769531 C 41.378906 81.519531 38.523438 82.5 36.257812 81.617188 C 34.882812 81.027344 34.097656 79.359375 33.015625 78.375 C 30.652344 76.21875 27.796875 77.691406 24.941406 72.488281 C 24.652344 71.996094 24.453125 71.601562 24.257812 71.113281 C 19.433594 79.160156 30.554688 86.425781 17.566406 103.511719 C 20.023438 94.183594 21.402344 91.925781 18.449219 82.207031 C 15.792969 76.414062 4.476562 57.464844 3.097656 48.53125 C 1.425781 37.925781 10.480469 31.449219 10.480469 31.449219 C 10.679688 28.601562 8.609375 19.566406 18.15625 10.925781 C 30.0625 0.226562 45.117188 1.109375 45.117188 1.109375 C 45.117188 1.109375 53.183594 -0.460938 55.941406 0.226562 C 58.597656 0.914062 58.796875 2.289062 58.796875 2.289062 C 58.796875 2.289062 62.4375 0.324219 63.714844 2.191406 C 64.699219 3.761719 65.191406 4.253906 65.292969 4.351562 C 73.359375 0.714844 86.742188 0.816406 89.792969 10.632812 C 96.285156 11.027344 102.585938 16.230469 103.570312 24.28125 C 104.160156 29.582031 102.191406 38.714844 97.269531 41.953125 C 99.535156 34.589844 101.207031 25.359375 95.007812 19.273438 C 95.597656 20.648438 96.1875 22.121094 96.386719 23.691406 C 97.664062 31.253906 94.617188 36.945312 94.617188 36.945312 C 94.316406 33.117188 89.496094 26.441406 87.035156 26.441406 C 89.890625 29.976562 91.074219 32.625 92.054688 37.632812 C 92.644531 40.480469 92.546875 41.167969 93.628906 42.738281 C 94.414062 43.914062 96.285156 46.371094 97.171875 48.628906 C 97.859375 50.296875 98.453125 51.96875 98.453125 52.949219 L 99.339844 53.636719 C 99.339844 53.636719 97.566406 56.285156 96.1875 57.171875 C 95.5 57.5625 94.8125 57.757812 94.316406 57.859375 C 94.515625 58.742188 97.566406 66.203125 97.957031 66.792969 C 98.15625 67.183594 98.550781 67.773438 99.042969 68.460938 C 100.714844 71.113281 103.46875 75.136719 102.78125 76.613281 C 102.390625 77.394531 101.597656 78.375 100.714844 79.0625 C 99.828125 79.652344 98.847656 80.246094 97.664062 80.441406 C 97.46875 80.539062 97.367188 80.539062 97.171875 80.539062 C 97.957031 81.617188 98.847656 82.792969 99.042969 83.089844 C 99.339844 83.582031 99.238281 84.757812 98.847656 86.035156 C 98.550781 86.820312 98.648438 87.804688 98.054688 88.589844 C 97.566406 89.175781 97.171875 89.667969 96.878906 89.960938 C 97.566406 90.746094 98.550781 92.417969 98.453125 93.300781 C 98.257812 94.183594 96.484375 95.265625 95.796875 95.953125 C 97.859375 100.859375 101.402344 107.535156 101.402344 112.640625 L 101.5 113.332031 C 98.054688 115.878906 96.1875 120.203125 91.171875 121.675781 C 86.9375 121.773438 79.953125 119.808594 74.636719 118.925781 L 66.273438 133.945312 L 66.570312 128.15625 C 65.683594 127.761719 63.910156 126.777344 60.859375 124.816406 C 55.15625 121.085938 48.167969 110.777344 48.167969 110.777344 C 48.167969 110.777344 50.824219 113.429688 56.628906 116.765625 C 60.566406 119.023438 64.699219 120.695312 67.0625 121.578125 L 67.355469 117.453125 C 62.042969 115.195312 52.988281 108.027344 50.230469 105.082031 C 47.183594 101.746094 45.511719 96.835938 48.070312 90.550781 " fill-opacity="1" fill-rule="evenodd"/></g><path fill="#fdfdfd" d="M 15.695312 49.21875 C 14.710938 43.816406 17.171875 39.59375 20.8125 35.765625 C 17.265625 41.460938 16.679688 42.933594 15.695312 49.21875 Z M 45.511719 6.511719 C 39.507812 10.828125 39.609375 10.140625 33.800781 15.640625 C 36.65625 9.652344 40.589844 7.195312 45.511719 6.511719 Z M 57.8125 5.234375 C 51.710938 10.042969 52.203125 9.554688 46.199219 14.855469 C 49.347656 8.964844 51.515625 7.589844 57.8125 5.234375 Z M 69.523438 5.035156 C 60.566406 9.257812 59.582031 11.222656 52.792969 16.722656 C 57.417969 9.652344 60.566406 6.902344 69.523438 5.035156 Z M 82.507812 11.714844 C 91.5625 12.890625 94.617188 21.238281 93.925781 27.519531 L 93.925781 27.621094 C 93.53125 27.71875 92.941406 25.753906 92.84375 25.753906 C 88.316406 13.875 78.769531 13.480469 67.550781 15.738281 C 71.585938 12.007812 76.902344 11.027344 82.507812 11.714844 Z M 35.472656 8.179688 C 33.113281 10.4375 30.847656 11.417969 28.097656 14.070312 C 26.324219 15.738281 26.226562 16.03125 24.550781 17.507812 C 28.191406 11.714844 29.964844 11.125 35.472656 8.179688 Z M 13.625 36.652344 C 9.890625 43.328125 10.378906 47.546875 11.660156 54.914062 C 9.496094 48.433594 8.707031 42.148438 13.625 36.652344 " fill-opacity="1" fill-rule="evenodd"/></svg>